<svg xmlns="http://www.w3.org/2000/svg" width="95" height="65" fill="none" viewBox="0 0 95 65"><circle cx="2.5" cy="62.501" r="2.5"/><circle cx="20.5" cy="62.501" r="2.5"/><circle cx="38.501" cy="62.501" r="2.5"/><circle cx="56.501" cy="62.501" r="2.5"/><circle cx="74.501" cy="62.501" r="2.5"/><circle cx="92.501" cy="62.501" r="2.5"/><circle cx="2.5" cy="42.501" r="2.5"/><circle cx="20.5" cy="42.501" r="2.5"/><circle cx="38.501" cy="42.501" r="2.5"/><circle cx="56.501" cy="42.501" r="2.5"/><circle cx="74.501" cy="42.501" r="2.5"/><circle cx="92.501" cy="42.501" r="2.5"/><circle cx="2.5" cy="22.5" r="2.5"/><circle cx="20.5" cy="22.5" r="2.5"/><circle cx="38.501" cy="22.5" r="2.5"/><circle cx="56.501" cy="22.5" r="2.5"/><circle cx="74.501" cy="22.5" r="2.5"/><circle cx="92.501" cy="22.5" r="2.5"/><circle cx="2.5" cy="2.5" r="2.5"/><circle cx="20.5" cy="2.5" r="2.5"/><circle cx="38.501" cy="2.5" r="2.5"/><circle cx="56.501" cy="2.5" r="2.5"/><circle cx="74.501" cy="2.5" r="2.5"/><circle cx="92.501" cy="2.5" r="2.5"/></svg>