<svg xmlns="http://www.w3.org/2000/svg" width="103" height="103" fill="none" viewBox="0 0 103 103"><circle cx="60.965" cy="98.604" r="2.5" transform="rotate(-45 60.9647 98.604)"/><circle cx="73.693" cy="85.876" r="2.5" transform="rotate(-45 73.6928 85.876)"/><circle cx="86.421" cy="73.148" r="2.5" transform="rotate(-45 86.4208 73.1479)"/><circle cx="99.148" cy="60.42" r="2.5" transform="rotate(-45 99.1483 60.4204)"/><circle cx="46.823" cy="84.462" r="2.5" transform="rotate(-45 46.8226 84.4619)"/><circle cx="59.551" cy="71.734" r="2.5" transform="rotate(-45 59.5507 71.7339)"/><circle cx="72.279" cy="59.006" r="2.5" transform="rotate(-45 72.2787 59.0059)"/><circle cx="85.006" cy="46.278" r="2.5" transform="rotate(-45 85.0062 46.2783)"/><circle cx="32.681" cy="70.32" r="2.5" transform="rotate(-45 32.6806 70.3198)"/><circle cx="45.409" cy="57.592" r="2.5" transform="rotate(-45 45.4086 57.5918)"/><circle cx="58.137" cy="44.864" r="2.5" transform="rotate(-45 58.1366 44.8638)"/><circle cx="18.538" cy="56.178" r="2.5" transform="rotate(-45 18.5385 56.1777)"/><circle cx="31.267" cy="43.45" r="2.5" transform="rotate(-45 31.2665 43.4497)"/><circle cx="4.396" cy="42.036" r="2.5" transform="rotate(-45 4.39637 42.0356)"/></svg>